<?xml version="1.0" encoding="iso-8859-1"?>
<!-- Generator: Adobe Illustrator 19.0.0, SVG Export Plug-In . SVG Version: 6.00 Build 0)  -->
<svg version="1.1" id="Layer_1" xmlns="http://www.w3.org/2000/svg" xmlns:xlink="http://www.w3.org/1999/xlink" x="0px" y="0px"
	 viewBox="0 0 455 455" style="enable-background:new 0 0 455 455;" xml:space="preserve">
<g>
	<polygon points="320.18,162.705 280.63,171.052 307.72,201.052 303.437,241.245 340.34,224.751 377.243,241.245 372.96,201.052 
		400.05,171.052 360.5,162.705 340.34,127.67 	"/>
	<polygon points="440,325.677 414.091,320.208 400.883,297.253 387.675,320.208 361.766,325.677 379.513,345.33 376.708,371.661 
		400.884,360.855 425.063,371.661 422.254,345.329 	"/>
	<path d="M218,227.5c0-89.167,51.306-166.338,126-203.64C313.443,8.6,278.978,0,242.5,0C116.855,0,15,101.855,15,227.5
		S116.855,455,242.5,455c36.478,0,70.943-8.6,101.5-23.86C269.306,393.838,218,316.667,218,227.5z"/>
</g>
<g>
</g>
<g>
</g>
<g>
</g>
<g>
</g>
<g>
</g>
<g>
</g>
<g>
</g>
<g>
</g>
<g>
</g>
<g>
</g>
<g>
</g>
<g>
</g>
<g>
</g>
<g>
</g>
<g>
</g>
</svg>
